<svg width="551" height="163" viewBox="0 0 551 163" fill="none" xmlns="http://www.w3.org/2000/svg">
<rect x="278.113" y="15.3754" width="269.25" height="90.75" rx="11.625" transform="rotate(-2 278.113 15.3754)" fill="white"/>
<ellipse cx="311.779" cy="44.5933" rx="15" ry="15" transform="rotate(-2 311.779 44.5933)" fill="#1A1A1A"/>
<path d="M314.675 42.2408L314.798 45.7615C315.233 45.7665 315.667 45.7758 316.1 45.7895L316.126 46.5359C315.442 46.5143 314.755 46.5035 314.065 46.5038L313.917 42.2673L314.675 42.2408ZM320.695 42.031L319.789 44.3526L320.864 46.8632L320.863 46.8637C320.574 46.8328 320.285 46.8041 319.995 46.7771L319.391 45.368L318.877 46.6834C318.611 46.6634 318.345 46.645 318.078 46.6283L318.962 44.3661L318.002 42.1251L318.822 42.0965L319.359 43.3506L319.863 42.0601L320.695 42.031ZM311.464 46.5576L311.317 42.3585L313.432 42.2847L313.458 43.0378L312.101 43.0852L312.135 44.0613L313.162 44.0254L313.188 44.7718L312.161 44.8077L312.222 46.531L311.464 46.5576ZM308.515 43.2105L308.489 42.4572L310.832 42.3754L310.858 43.1286L310.065 43.1563L310.186 46.6227C309.934 46.6382 309.681 46.6548 309.43 46.6731L309.308 43.1828L308.515 43.2105ZM306.054 47.0083L305.899 42.5478L308.003 42.4743L308.029 43.2275L306.682 43.2745L306.718 44.2947C307.027 44.2799 307.467 44.26 307.741 44.2511L307.767 44.9976C307.424 45.0053 307.038 45.0278 306.744 45.041L306.784 46.171C307.23 46.1202 307.678 46.0737 308.127 46.032L308.153 46.7785C307.45 46.8437 306.75 46.9204 306.054 47.0083ZM304.508 45.3346L304.413 42.5996L305.17 42.5731L305.328 47.1041C305.052 47.1422 304.777 47.1822 304.502 47.2238L303.537 44.7343L303.629 47.3624C303.377 47.4042 303.126 47.4474 302.875 47.492L302.706 42.6592L303.426 42.6341L304.508 45.3346ZM316.752 46.5591L316.599 42.1741L317.357 42.1476L317.512 46.5953C317.259 46.5816 317.006 46.5697 316.752 46.5591Z" fill="#DB202C"/>
<path d="M340.638 38.2408C340.599 37.1285 339.864 36.5448 338.533 36.3286L337.233 36.1114C336.684 36.0255 336.204 35.8216 336.186 35.3074C336.167 34.7828 336.593 34.3266 337.369 34.2995C338.167 34.2717 338.731 34.7878 338.811 35.573L340.427 35.5165C340.267 33.9462 338.994 33.003 337.305 33.062C335.678 33.1188 334.526 34.1256 334.573 35.4688C334.617 36.7175 335.52 37.3059 336.672 37.4863L337.918 37.6844C338.563 37.788 338.94 38.0585 338.956 38.5307C338.978 39.1393 338.413 39.5163 337.605 39.5445C336.629 39.5786 336.075 39.0621 336.004 38.2346L334.388 38.291C334.559 39.882 335.781 40.8585 337.68 40.7921C339.569 40.7262 340.688 39.6785 340.638 38.2408ZM344.208 40.5537C345.572 40.506 346.522 39.7479 346.793 38.4672L345.345 38.5177C345.196 39.0798 344.777 39.4096 344.137 39.432C343.392 39.458 342.934 38.9697 342.807 38.06L346.784 37.9211C346.983 36.0861 345.757 34.6895 343.984 34.7514C342.368 34.8079 341.246 36.0658 341.304 37.7343C341.365 39.4867 342.529 40.6123 344.208 40.5537ZM343.99 35.8229C344.682 35.7987 345.14 36.2765 345.209 37.0516L342.796 37.1359C342.893 36.3025 343.308 35.8467 343.99 35.8229ZM349.199 37.2275C349.167 36.325 349.644 35.8461 350.221 35.8259C350.882 35.8028 351.224 36.2532 351.253 37.0822L351.362 40.2093L352.81 40.1587L352.684 36.5384C352.636 35.1847 351.834 34.4773 350.711 34.5165C349.977 34.5422 349.412 34.9086 349.022 35.4791L348.994 34.6815L347.651 34.7285L347.847 40.332L349.305 40.2811L349.199 37.2275ZM355.515 33.151C355.497 32.6368 355.086 32.2835 354.509 32.3036C353.942 32.3234 353.556 32.7046 353.574 33.2188C353.591 33.712 354.003 34.0654 354.569 34.0456C355.147 34.0254 355.533 33.6442 355.515 33.151ZM355.526 40.0639L355.33 34.4603L353.871 34.5112L354.067 40.1148L355.526 40.0639ZM359.304 40.037C360.93 39.9802 362.103 38.6575 362.046 37.031C361.989 35.394 360.727 34.1668 359.101 34.2236C357.474 34.2804 356.301 35.5926 356.358 37.2296C356.415 38.8561 357.677 40.0938 359.304 40.037ZM359.259 38.7463C358.535 38.7716 357.895 38.2161 357.859 37.1772C357.823 36.1383 358.422 35.55 359.146 35.5248C359.87 35.4995 360.509 36.0445 360.545 37.0834C360.582 38.1222 359.983 38.721 359.259 38.7463ZM364.438 37.0315C364.395 35.7932 365.214 35.4705 366.455 35.5217L366.403 34.0106C365.5 34.0421 364.644 34.5028 364.26 35.2306L364.222 34.1498L362.879 34.1967L363.075 39.8003L364.533 39.7493L364.438 37.0315ZM375.046 36.577C374.989 34.9295 373.969 33.7043 372.458 33.7571C371.744 33.782 371.137 34.1289 370.727 34.7421L370.699 33.9236L369.355 33.9705L369.622 41.5994L371.081 41.5484L370.984 38.7991C371.423 39.3301 372 39.5937 372.661 39.5706C374.172 39.5178 375.104 38.235 375.046 36.577ZM373.546 36.6294C373.583 37.6997 373.004 38.2558 372.29 38.2807C371.577 38.3056 370.959 37.7809 370.922 36.721C370.885 35.6611 371.464 35.0841 372.178 35.0592C372.891 35.0343 373.509 35.58 373.546 36.6294ZM377.443 36.5774C377.399 35.3391 378.218 35.0163 379.46 35.0676L379.407 33.5565C378.504 33.588 377.649 34.0486 377.264 34.7765L377.226 33.6957L375.883 33.7426L376.079 39.3461L377.538 39.2952L377.443 36.5774ZM382.802 39.2164C384.428 39.1596 385.601 37.8369 385.544 36.2104C385.487 34.5734 384.225 33.3462 382.599 33.403C380.972 33.4598 379.799 34.772 379.856 36.409C379.913 38.0355 381.175 39.2732 382.802 39.2164ZM382.757 37.9257C382.032 37.951 381.393 37.3955 381.357 36.3566C381.321 35.3178 381.92 34.7295 382.644 34.7042C383.368 34.6789 384.007 35.2239 384.043 36.2628C384.08 37.3017 383.481 37.9004 382.757 37.9257ZM386.107 36.1907C386.165 37.8277 387.185 39.0634 388.696 39.0106C389.42 38.9853 390.017 38.6388 390.437 38.0357L390.466 38.8437L391.798 38.7972L391.535 31.2628L390.087 31.3134L390.18 33.9683C389.741 33.4477 389.164 33.1737 388.493 33.1972C386.982 33.2499 386.05 34.5327 386.107 36.1907ZM387.608 36.1383C387.571 35.068 388.15 34.5014 388.863 34.4765C389.577 34.4516 390.204 34.9655 390.241 36.0254C390.278 37.0852 389.7 37.6728 388.976 37.698C388.262 37.723 387.645 37.1877 387.608 36.1383ZM396.428 36.2716C396.455 37.0271 395.966 37.4645 395.441 37.4828C394.853 37.5033 394.453 37.1706 394.425 36.3836L394.311 33.0991L392.852 33.15L392.977 36.7178C393.028 38.1764 393.87 38.8299 394.993 38.7907C395.706 38.7658 396.313 38.3979 396.601 37.8941L396.626 38.6286L397.959 38.5821L397.763 32.9785L396.315 33.0291L396.428 36.2716ZM401.634 38.5588C403.135 38.5064 404.151 37.5148 404.265 35.9664L402.733 36.0199C402.675 36.7889 402.261 37.2446 401.589 37.2681C400.823 37.2948 400.33 36.7027 400.294 35.6953C400.26 34.6984 400.721 34.0624 401.476 34.0361C402.137 34.013 402.605 34.4589 402.704 35.2014L404.236 35.1479C404.005 33.6431 402.89 32.6944 401.431 32.7453C399.857 32.8003 398.746 34.0684 398.804 35.7473C398.864 37.4578 400.018 38.6152 401.634 38.5588ZM408.719 36.788C408.513 36.9107 408.264 36.9825 407.991 36.992C407.466 37.0103 407.163 36.7582 407.14 36.1076L407.064 33.904L408.669 33.8479L408.625 32.5992L407.02 32.6552L406.962 30.9973L405.514 31.0478L405.572 32.7058L404.438 32.7454L404.482 33.9941L405.615 33.9546L405.704 36.494C405.748 37.7532 406.495 38.389 407.65 38.3487C408.08 38.3337 408.413 38.2485 408.764 38.0577L408.719 36.788ZM411.44 35.3061C411.497 36.9431 412.517 38.1788 414.028 38.126C414.752 38.1007 415.349 37.7542 415.77 37.1511L415.798 37.9591L417.131 37.9126L416.867 30.3782L415.419 30.4287L415.512 33.0836C415.074 32.5631 414.497 32.2891 413.825 32.3125C412.314 32.3653 411.382 33.6481 411.44 35.3061ZM412.94 35.2537C412.903 34.1834 413.482 33.6168 414.196 33.5919C414.909 33.567 415.536 34.0809 415.573 35.1407C415.61 36.2006 415.032 36.7881 414.308 36.8134C413.594 36.8383 412.977 36.3031 412.94 35.2537ZM420.87 37.8766C422.235 37.8289 423.185 37.0708 423.456 35.7901L422.007 35.8406C421.859 36.4027 421.44 36.7325 420.8 36.7548C420.055 36.7809 419.596 36.2926 419.47 35.3829L423.447 35.244C423.646 33.409 422.42 32.0124 420.647 32.0743C419.031 32.1308 417.908 33.3887 417.967 35.0572C418.028 36.8096 419.191 37.9352 420.87 37.8766ZM420.653 33.1458C421.345 33.1216 421.803 33.5994 421.872 34.3745L419.459 34.4587C419.556 33.6253 419.971 33.1696 420.653 33.1458ZM429.179 35.6952C429.151 34.8872 428.577 34.403 427.479 34.2312L426.391 34.0696C425.884 33.9927 425.648 33.8644 425.637 33.5286C425.624 33.1718 425.974 32.9599 426.509 32.9413C427.128 32.9196 427.549 33.2411 427.621 33.785L429.016 33.7362C428.869 32.5331 427.878 31.8218 426.472 31.8709C425.076 31.9196 424.209 32.6749 424.246 33.7137C424.276 34.5847 424.904 35.1196 425.918 35.2628L426.932 35.4165C427.471 35.5028 427.707 35.6416 427.719 35.9984C427.733 36.3971 427.309 36.5906 426.742 36.6104C426.018 36.6356 425.512 36.2856 425.482 35.7088L424.086 35.7575C424.245 37.0022 425.164 37.7371 426.759 37.6814C428.354 37.6257 429.22 36.8705 429.179 35.6952ZM431.686 30.4911C431.668 29.9769 431.257 29.6235 430.68 29.6437C430.113 29.6635 429.727 30.0447 429.745 30.5589C429.762 31.0521 430.174 31.4054 430.74 31.3856C431.317 31.3655 431.703 30.9843 431.686 30.4911ZM431.696 37.4039L431.501 31.8004L430.042 31.8513L430.238 37.4549L431.696 37.4039ZM435.451 39.4056C437.109 39.3477 438.085 38.4101 438.033 36.92L437.846 31.5788L436.514 31.6253L436.54 32.3913C436.111 31.8285 435.534 31.5544 434.778 31.5808C433.393 31.6292 432.467 32.7857 432.524 34.4122C432.579 35.9968 433.648 37.1257 435.023 37.0776C435.705 37.0538 436.271 36.7189 436.557 36.1731L436.585 36.9916C436.614 37.7996 436.209 38.2445 435.401 38.2727C434.708 38.2969 434.287 37.9754 434.202 37.3375L432.796 37.3866C432.904 38.6751 433.94 39.4584 435.451 39.4056ZM433.982 34.3613C433.951 33.4484 434.413 32.8544 435.158 32.8283C435.924 32.8016 436.448 33.3716 436.48 34.2846C436.511 35.166 436.028 35.7818 435.262 35.8085C434.507 35.8349 434.014 35.2742 433.982 34.3613ZM440.71 34.0318C440.679 33.1294 441.156 32.6504 441.733 32.6303C442.394 32.6072 442.735 33.0575 442.764 33.8865L442.874 37.0136L444.322 36.9631L444.195 33.3428C444.148 31.9891 443.346 31.2816 442.223 31.3209C441.488 31.3465 440.923 31.713 440.534 32.2834L440.506 31.4859L439.163 31.5328L439.358 37.1364L440.817 37.0854L440.71 34.0318ZM448.016 36.9286C449.381 36.881 450.331 36.1228 450.602 34.8421L449.154 34.8927C449.005 35.4547 448.586 35.7845 447.946 35.8069C447.201 35.8329 446.742 35.3446 446.616 34.4349L450.593 34.2961C450.792 32.461 449.566 31.0644 447.793 31.1264C446.177 31.1828 445.054 32.4407 445.113 34.1092C445.174 35.8616 446.337 36.9872 448.016 36.9286ZM447.799 32.1978C448.491 32.1736 448.949 32.6514 449.018 33.4265L446.605 33.5108C446.702 32.6774 447.117 32.2216 447.799 32.1978ZM453.019 33.9382C452.976 32.6999 453.795 32.3772 455.036 32.4284L454.983 30.9173C454.081 30.9488 453.225 31.4094 452.841 32.1373L452.803 31.0565L451.46 31.1034L451.655 36.707L453.114 36.656L453.019 33.9382Z" fill="#1A1A1A"/>
<path d="M339.668 54.6261L340.667 54.5913L340.441 48.1332L339.524 48.1652L339.695 53.0763L336.205 48.2811L335.126 48.3188L335.351 54.7769L336.269 54.7449L336.092 49.6989L339.668 54.6261ZM343.954 54.5665C345.078 54.5273 345.874 53.8601 346.071 52.7906L345.172 52.822C345.04 53.4479 344.586 53.833 343.911 53.8566C343.111 53.8846 342.605 53.3349 342.499 52.366L346.052 52.2419C346.16 50.6892 345.175 49.5709 343.754 49.6205C342.441 49.6664 341.515 50.7343 341.564 52.1465C341.616 53.6486 342.578 54.6146 343.954 54.5665ZM343.76 50.3047C344.498 50.279 344.993 50.793 345.069 51.6729L342.487 51.763C342.555 50.8691 343.031 50.3302 343.76 50.3047ZM349.734 53.3921C349.548 53.4886 349.361 53.5312 349.145 53.5388C348.659 53.5557 348.336 53.3328 348.313 52.6762L348.231 50.3287L349.671 50.2784L349.644 49.5049L348.204 49.5551L348.155 48.143L347.247 48.1747L347.296 49.5869L346.244 49.6236L346.271 50.3971L347.323 50.3604L347.412 52.9148C347.449 53.9672 348.077 54.4226 348.959 54.3918C349.246 54.3817 349.488 54.3283 349.762 54.1926L349.734 53.3921ZM352.105 54.1918L351.966 50.1983L353.297 50.1518L353.27 49.3783L351.939 49.4247L351.927 49.083C351.911 48.6242 352.156 48.4176 352.587 48.4025C352.749 48.3968 352.912 48.4092 353.058 48.4671L353.032 47.7296C352.85 47.6639 352.632 47.6264 352.362 47.6359C351.463 47.6673 350.986 48.1882 351.018 49.1057L351.03 49.4565L349.978 49.4932L350.005 50.2668L351.057 50.23L351.197 54.2236L352.105 54.1918ZM355.037 54.0895L354.812 47.6314L353.894 47.6634L354.12 54.1215L355.037 54.0895ZM357.2 48.1333C357.188 47.7826 356.909 47.5401 356.522 47.5536C356.135 47.5671 355.865 47.8287 355.878 48.1795C355.89 48.5213 356.177 48.7724 356.564 48.7589C356.951 48.7454 357.212 48.4751 357.2 48.1333ZM357.207 54.0137L357.041 49.2466L356.132 49.2783L356.299 54.0454L357.207 54.0137ZM358.963 53.9524L360.156 52.0105L361.499 53.8638L362.543 53.8274L360.785 51.4752L362.268 49.064L361.288 49.0983L360.172 50.9383L358.931 49.1806L357.879 49.2173L359.543 51.4916L357.937 53.9882L358.963 53.9524Z" fill="#667085"/>
<rect x="297.73" y="72.1004" width="108" height="18" rx="9" transform="rotate(-2 297.73 72.1004)" fill="#F2F4F7"/>
<g clip-path="url(#clip0_1607_12053)">
<path d="M307.248 86.7771C310.56 86.6615 313.151 83.8831 313.035 80.5714C312.919 77.2597 310.141 74.6688 306.829 74.7844C303.518 74.9001 300.927 77.6785 301.042 80.9902C301.158 84.3019 303.936 86.8928 307.248 86.7771Z" fill="#F0F0F0"/>
<path d="M306.779 80.7899L313.036 80.5714C313.017 80.0302 312.927 79.5084 312.775 79.0144L306.725 79.2256L306.779 80.7899Z" fill="#D80027"/>
<path d="M306.67 77.6614L312.047 77.4737C311.659 76.8875 311.171 76.3745 310.609 75.9577L306.615 76.0972L306.67 77.6614Z" fill="#D80027"/>
<path d="M307.249 86.7772C308.66 86.7279 309.94 86.1949 310.936 85.3433L303.471 85.604C304.523 86.384 305.838 86.8265 307.249 86.7772Z" fill="#D80027"/>
<path d="M302.033 84.0881L312.265 83.7307C312.543 83.2396 312.753 82.706 312.884 82.1429L301.305 82.5473C301.474 83.0999 301.721 83.6175 302.033 84.0881Z" fill="#D80027"/>
<path d="M303.643 75.8333L304.19 75.8142L303.694 76.2012L303.909 76.7919L303.388 76.4404L302.893 76.8274L303.043 76.3054C302.608 76.6938 302.231 77.1442 301.925 77.6422L302.1 77.636L301.785 77.8824C301.737 77.9682 301.692 78.0554 301.648 78.1437L301.82 78.6138L301.524 78.4144C301.458 78.5687 301.398 78.7262 301.344 78.8868L301.533 79.4047L302.161 79.3828L301.666 79.7698L301.881 80.3605L301.359 80.009L301.063 80.2409C301.041 80.4869 301.034 80.737 301.042 80.9902L307.039 80.7808C306.923 77.4691 306.909 77.0787 306.829 74.7844C305.645 74.8258 304.553 75.208 303.643 75.8333ZM304.031 80.2854L303.51 79.9339L303.015 80.3209L303.188 79.7167L302.667 79.3651L303.295 79.3432L303.469 78.7389L303.684 79.3296L304.312 79.3077L303.816 79.6947L304.031 80.2854ZM303.755 77.948L303.97 78.5387L303.449 78.1872L302.954 78.5742L303.127 77.9699L302.606 77.6184L303.234 77.5964L303.408 76.9922L303.623 77.5829L304.251 77.5609L303.755 77.948ZM306.182 80.2103L305.661 79.8588L305.166 80.2458L305.339 79.6415L304.818 79.29L305.446 79.2681L305.619 78.6638L305.834 79.2545L306.463 79.2326L305.967 79.6196L306.182 80.2103ZM305.906 77.8728L306.121 78.4636L305.6 78.112L305.105 78.4991L305.278 77.8948L304.757 77.5433L305.385 77.5213L305.558 76.917L305.773 77.5078L306.402 77.4858L305.906 77.8728ZM305.845 76.1261L306.06 76.7168L305.539 76.3653L305.044 76.7523L305.217 76.148L304.696 75.7965L305.324 75.7746L305.497 75.1703L305.712 75.761L306.341 75.7391L305.845 76.1261Z" fill="#0052B4"/>
</g>
<path d="M324.874 76.6939L323.507 76.7416L323.648 80.7712C323.676 81.5717 323.308 82.1248 322.408 82.1563C321.5 82.188 321.094 81.6618 321.066 80.8613L320.926 76.8318L319.558 76.8795L319.698 80.8821C319.752 82.4111 320.742 83.4392 322.451 83.3795C324.133 83.3208 325.067 82.2255 325.014 80.6964L324.874 76.6939ZM327.458 80.449C327.431 79.6754 327.84 79.2649 328.335 79.2477C328.901 79.2279 329.194 79.6139 329.219 80.3245L329.313 83.0048L330.554 82.9615L330.445 79.8584C330.405 78.6981 329.717 78.0917 328.755 78.1253C328.125 78.1473 327.641 78.4614 327.307 78.9503L327.283 78.2668L326.132 78.307L326.299 83.11L327.55 83.0664L327.458 80.449ZM332.873 76.9549C332.857 76.5142 332.504 76.2113 332.01 76.2286C331.524 76.2455 331.193 76.5723 331.209 77.013C331.223 77.4357 331.576 77.7386 332.062 77.7217C332.556 77.7044 332.887 77.3776 332.873 76.9549ZM332.881 82.8802L332.714 78.0771L331.463 78.1208L331.631 82.9239L332.881 82.8802ZM336.938 81.5228C336.761 81.628 336.547 81.6895 336.313 81.6977C335.864 81.7134 335.604 81.4973 335.585 80.9397L335.519 79.0508L336.895 79.0028L336.857 77.9324L335.481 77.9805L335.432 76.5593L334.19 76.6027L334.24 78.0238L333.269 78.0577L333.306 79.1281L334.277 79.0942L334.353 81.2708C334.391 82.3502 335.031 82.8952 336.021 82.8606C336.39 82.8477 336.675 82.7747 336.976 82.6111L336.938 81.5228ZM339.773 82.7206C340.942 82.6798 341.757 82.0299 341.989 80.9322L340.747 80.9755C340.62 81.4573 340.261 81.74 339.712 81.7591C339.073 81.7814 338.681 81.3629 338.572 80.5832L341.981 80.4641C342.151 78.8912 341.101 77.6942 339.581 77.7473C338.196 77.7956 337.234 78.8739 337.284 80.304C337.336 81.8061 338.333 82.7709 339.773 82.7206ZM339.586 78.6656C340.18 78.6449 340.572 79.0545 340.631 79.7188L338.563 79.791C338.646 79.0767 339.001 78.6861 339.586 78.6656ZM342.405 80.1431C342.454 81.5463 343.329 82.6054 344.624 82.5602C345.245 82.5385 345.757 82.2415 346.117 81.7246L346.141 82.4172L347.283 82.3773L347.058 75.9192L345.816 75.9625L345.896 78.2382C345.52 77.792 345.026 77.5571 344.45 77.5772C343.155 77.6225 342.356 78.722 342.405 80.1431ZM343.692 80.0982C343.659 79.1808 344.156 78.6952 344.767 78.6738C345.379 78.6525 345.917 79.093 345.949 80.0014C345.98 80.9098 345.485 81.4135 344.864 81.4351C344.252 81.4565 343.723 80.9977 343.692 80.0982ZM354.282 80.5929C354.258 79.9004 353.766 79.4853 352.824 79.338L351.892 79.1995C351.457 79.1336 351.255 79.0236 351.245 78.7358C351.234 78.43 351.534 78.2484 351.993 78.2324C352.524 78.2138 352.884 78.4894 352.946 78.9556L354.142 78.9138C354.016 77.8826 353.166 77.2728 351.961 77.3149C350.765 77.3567 350.022 78.004 350.053 78.8945C350.079 79.641 350.617 80.0995 351.486 80.2223L352.355 80.354C352.817 80.428 353.019 80.547 353.03 80.8528C353.042 81.1946 352.679 81.3604 352.193 81.3773C351.572 81.399 351.138 81.0989 351.112 80.6046L349.916 80.6463C350.052 81.7132 350.84 82.3431 352.207 82.2954C353.574 82.2476 354.317 81.6003 354.282 80.5929ZM358.036 80.786C357.86 80.8912 357.646 80.9528 357.412 80.9609C356.962 80.9766 356.702 80.7606 356.683 80.2029L356.617 78.314L357.993 78.266L357.956 77.1956L356.58 77.2437L356.53 75.8226L355.289 75.8659L355.338 77.287L354.367 77.321L354.404 78.3913L355.376 78.3574L355.452 80.5341C355.489 81.6134 356.13 82.1584 357.119 82.1238C357.488 82.111 357.774 82.038 358.074 81.8744L358.036 80.786ZM361.747 81.8722L362.764 81.8367L362.658 78.8145C362.617 77.6362 361.855 76.9694 360.596 77.0134C359.436 77.0539 358.66 77.8014 358.627 78.9103L359.751 78.871C359.777 78.3298 360.09 78.0036 360.63 77.9848C361.152 77.9666 361.468 78.2707 361.487 78.8104L361.497 79.0982C361.199 79.0726 360.965 79.0628 360.695 79.0722C359.292 79.1212 358.554 79.6513 358.586 80.5867C358.618 81.4862 359.304 82.0476 360.302 82.0127C360.959 81.9898 361.427 81.7393 361.726 81.2785L361.747 81.8722ZM359.763 80.5096C359.748 80.0778 360.091 79.8407 360.802 79.8159C361.018 79.8084 361.225 79.8191 361.524 79.8537L361.536 80.1955C361.555 80.7532 361.181 81.1175 360.542 81.1398C360.074 81.1561 359.778 80.9143 359.763 80.5096ZM366.714 80.483C366.538 80.5882 366.324 80.6497 366.09 80.6579C365.64 80.6736 365.381 80.4575 365.361 79.8998L365.295 78.011L366.671 77.9629L366.634 76.8926L365.258 76.9406L365.208 75.5195L363.967 75.5629L364.017 76.984L363.045 77.0179L363.083 78.0883L364.054 78.0543L364.13 80.231C364.168 81.3104 364.808 81.8553 365.798 81.8208C366.166 81.8079 366.452 81.7349 366.752 81.5713L366.714 80.483ZM369.549 81.6808C370.719 81.6399 371.534 80.9901 371.765 79.8923L370.524 79.9357C370.397 80.4174 370.037 80.7001 369.489 80.7193C368.85 80.7416 368.457 80.3231 368.349 79.5434L371.758 79.4243C371.928 77.8514 370.878 76.6543 369.358 76.7074C367.973 76.7558 367.011 77.834 367.061 79.2642C367.113 80.7662 368.11 81.731 369.549 81.6808ZM369.363 77.6258C369.956 77.6051 370.349 78.0146 370.408 78.679L368.339 78.7512C368.423 78.0369 368.778 77.6462 369.363 77.6258ZM376.671 79.8111C376.647 79.1185 376.155 78.7034 375.214 78.5562L374.281 78.4176C373.847 78.3518 373.645 78.2417 373.635 77.9539C373.624 77.6481 373.924 77.4665 374.383 77.4505C374.913 77.432 375.274 77.7076 375.335 78.1737L376.532 78.1319C376.406 77.1007 375.556 76.491 374.351 76.5331C373.154 76.5748 372.411 77.2222 372.443 78.1126C372.469 78.8592 373.007 79.3177 373.876 79.4404L374.745 79.5722C375.207 79.6461 375.409 79.7651 375.42 80.0709C375.432 80.4127 375.068 80.5785 374.583 80.5955C373.962 80.6171 373.528 80.3171 373.502 79.8227L372.306 79.8645C372.442 80.9314 373.229 81.5613 374.597 81.5135C375.964 81.4658 376.707 80.8185 376.671 79.8111ZM381.584 81.2695C382.978 81.2208 383.983 80.0871 383.935 78.6929C383.886 77.2898 382.804 76.2379 381.41 76.2865C380.016 76.3352 379.011 77.46 379.06 78.8631C379.108 80.2573 380.19 81.3182 381.584 81.2695ZM381.546 80.1632C380.925 80.1849 380.377 79.7087 380.346 78.8182C380.315 77.9278 380.829 77.4235 381.449 77.4019C382.07 77.3802 382.617 77.8474 382.649 78.7378C382.68 79.6283 382.166 80.1415 381.546 80.1632ZM385.975 78.4055C385.948 77.632 386.357 77.2215 386.852 77.2042C387.419 77.1844 387.711 77.5704 387.736 78.281L387.83 80.9614L389.071 80.918L388.963 77.8149C388.922 76.6546 388.234 76.0482 387.272 76.0818C386.642 76.1038 386.158 76.4179 385.824 76.9069L385.8 76.2233L384.649 76.2635L384.816 81.0666L386.067 81.0229L385.975 78.4055ZM391.407 80.8364L391.182 74.3784L389.923 74.4223L390.148 80.8804L391.407 80.8364ZM396.687 75.8431L395.437 75.8868L394.455 79.2171L393.134 75.9672L391.785 76.0143L393.84 80.6974L393.219 82.5112L394.577 82.4638L396.687 75.8431Z" fill="#667085"/>
<rect x="411.661" y="68.1219" width="62.5" height="18" rx="9" transform="rotate(-2 411.661 68.1219)" fill="#D1FADF"/>
<ellipse cx="420.22" cy="76.8285" rx="2.25" ry="2.25" transform="rotate(-2 420.22 76.8285)" fill="#039855"/>
<path d="M430.603 79.4677L430.517 77.0032L432.882 76.9206L432.841 75.7423L430.476 75.8249L430.419 74.1969L433.225 74.0989L433.183 72.9117L429.01 73.0574L429.236 79.5155L430.603 79.4677ZM437.022 77.2173C437.045 77.8649 436.625 78.2398 436.176 78.2555C435.672 78.2731 435.329 77.9879 435.305 77.3133L435.207 74.498L433.957 74.5417L434.064 77.5998C434.107 78.85 434.829 79.4102 435.792 79.3766C436.403 79.3552 436.924 79.0399 437.17 78.608L437.192 79.2376L438.334 79.1977L438.166 74.3947L436.925 74.438L437.022 77.2173ZM440.716 79.1145L440.491 72.6565L439.232 72.7004L439.457 79.1585L440.716 79.1145ZM443.097 79.0314L442.871 72.5733L441.612 72.6173L441.838 79.0754L443.097 79.0314ZM449.042 77.6081C448.865 77.7133 448.651 77.7748 448.417 77.783C447.968 77.7987 447.708 77.5826 447.688 77.025L447.622 75.1361L448.999 75.088L448.961 74.0177L447.585 74.0658L447.535 72.6446L446.294 72.688L446.344 74.1091L445.372 74.143L445.41 75.2134L446.381 75.1794L446.457 77.3561C446.495 78.4355 447.135 78.9804 448.125 78.9459C448.493 78.933 448.779 78.86 449.08 78.6964L449.042 77.6081ZM451.134 72.8251C451.118 72.3844 450.766 72.0815 450.271 72.0988C449.785 72.1158 449.454 72.4425 449.47 72.8833C449.485 73.306 449.837 73.6089 450.323 73.5919C450.818 73.5746 451.149 73.2479 451.134 72.8251ZM451.143 78.7505L450.975 73.9474L449.725 73.991L449.892 78.7941L451.143 78.7505ZM453.505 78.6679L453.412 75.9876C453.387 75.268 453.769 74.8674 454.273 74.8498C454.821 74.8307 455.123 75.2254 455.147 75.9L455.241 78.6073L456.483 78.564L456.389 75.8836C456.364 75.164 456.755 74.7632 457.25 74.7459C457.798 74.7267 458.1 75.1214 458.124 75.796L458.218 78.5034L459.46 78.46L459.351 75.3569C459.311 74.2056 458.632 73.5899 457.661 73.6238C456.941 73.649 456.467 73.9897 456.108 74.5336C455.846 73.9934 455.331 73.7052 454.675 73.7281C454.036 73.7504 453.596 74.054 453.263 74.5519L453.239 73.8683L452.087 73.9085L452.255 78.7116L453.505 78.6679ZM462.619 78.4307C463.788 78.3899 464.603 77.7401 464.835 76.6423L463.594 76.6857C463.466 77.1674 463.107 77.4501 462.558 77.4693C461.92 77.4916 461.527 77.073 461.419 76.2933L464.828 76.1743C464.998 74.6014 463.947 73.4043 462.427 73.4574C461.042 73.5058 460.08 74.584 460.13 76.0141C460.183 77.5162 461.18 78.481 462.619 78.4307ZM462.432 74.3758C463.026 74.3551 463.418 74.7646 463.478 75.4289L461.409 75.5012C461.492 74.7868 461.848 74.3962 462.432 74.3758Z" fill="#039855"/>
<rect x="480.119" y="65.7313" width="52" height="18" rx="9" transform="rotate(-2 480.119 65.7313)" fill="#FEE4E2"/>
<path d="M491.566 77.3389L491.486 75.0543L492.34 75.0244L493.877 77.2582L495.505 77.2013L493.754 74.7679C494.661 74.4301 495.176 73.7187 495.146 72.8462C495.099 71.506 494.128 70.7834 492.5 70.8403L489.973 70.9286L490.198 77.3866L491.566 77.3389ZM491.38 72.0141L492.477 71.9758C493.304 71.9469 493.757 72.2553 493.779 72.8939C493.801 73.5235 493.371 73.8627 492.544 73.8916L491.447 73.93L491.38 72.0141ZM498.135 77.1905C499.305 77.1497 500.12 76.4998 500.351 75.4021L499.11 75.4454C498.983 75.9272 498.623 76.2099 498.075 76.229C497.436 76.2513 497.043 75.8328 496.935 75.0531L500.344 74.934C500.514 73.3611 499.464 72.1641 497.944 72.2172C496.559 72.2655 495.597 73.3438 495.647 74.7739C495.699 76.276 496.696 77.2408 498.135 77.1905ZM497.949 73.1355C498.542 73.1148 498.935 73.5244 498.994 74.1887L496.925 74.2609C497.009 73.5466 497.364 73.156 497.949 73.1355ZM502.505 76.9569L502.411 74.2765C502.386 73.5569 502.768 73.1564 503.272 73.1388C503.821 73.1196 504.123 73.5143 504.146 74.1889L504.241 76.8962L505.482 76.8529L505.388 74.1725C505.363 73.453 505.755 73.0521 506.249 73.0348C506.798 73.0156 507.1 73.4103 507.123 74.0849L507.218 76.7923L508.459 76.7489L508.351 73.6458C508.311 72.4945 507.632 71.8788 506.66 71.9128C505.941 71.9379 505.466 72.2787 505.107 72.8225C504.845 72.2823 504.331 71.9941 503.674 72.017C503.036 72.0394 502.596 72.3429 502.262 72.8408L502.238 72.1573L501.087 72.1975L501.255 77.0005L502.505 76.9569ZM511.655 76.7274C513.049 76.6787 514.054 75.545 514.005 74.1508C513.956 72.7477 512.875 71.6958 511.481 71.7444C510.087 71.7931 509.081 72.9179 509.13 74.321C509.179 75.7152 510.261 76.7761 511.655 76.7274ZM511.616 75.6211C510.995 75.6428 510.448 75.1666 510.416 74.2761C510.385 73.3857 510.899 72.8814 511.52 72.8598C512.14 72.8381 512.688 73.3053 512.719 74.1957C512.75 75.0862 512.237 75.5994 511.616 75.6211ZM517.743 75.209C517.566 75.3142 517.352 75.3757 517.119 75.3839C516.669 75.3996 516.409 75.1835 516.39 74.6259L516.324 72.737L517.7 72.689L517.663 71.6186L516.286 71.6667L516.237 70.2455L514.995 70.2889L515.045 71.71L514.074 71.7439L514.111 72.8143L515.082 72.7804L515.158 74.957C515.196 76.0364 515.837 76.5814 516.826 76.5468C517.195 76.5339 517.48 76.4609 517.781 76.2973L517.743 75.209ZM520.578 76.4068C521.747 76.366 522.562 75.7161 522.794 74.6184L521.552 74.6617C521.425 75.1435 521.066 75.4262 520.517 75.4453C519.879 75.4676 519.486 75.0491 519.377 74.2694L522.786 74.1503C522.957 72.5774 521.906 71.3804 520.386 71.4335C519.001 71.4818 518.039 72.5601 518.089 73.9902C518.141 75.4923 519.139 76.4571 520.578 76.4068ZM520.391 72.3518C520.985 72.3311 521.377 72.7407 521.437 73.405L519.368 73.4772C519.451 72.7629 519.807 72.3723 520.391 72.3518Z" fill="#F04438"/>
<rect x="278.113" y="15.3754" width="269.25" height="90.75" rx="11.625" transform="rotate(-2 278.113 15.3754)" stroke="#E4E6E8" stroke-width="0.75"/>
<rect x="268.302" y="0.907572" width="269.25" height="90.75" rx="11.625" transform="rotate(4.20175 268.302 0.907572)" fill="white"/>
<ellipse cx="298.614" cy="33.5913" rx="15" ry="15" transform="rotate(4.20175 298.614 33.5913)" fill="#1A1A1A"/>
<path d="M301.747 31.5654L301.489 35.0787C301.921 35.1307 302.351 35.1868 302.78 35.2472L302.725 35.9921C302.047 35.8966 301.365 35.8117 300.68 35.7376L300.991 31.5099L301.747 31.5654ZM307.754 32.0072L306.602 34.2172L307.4 36.8293L307.399 36.8297C307.115 36.7677 306.831 36.708 306.546 36.6498L306.098 35.1838L305.445 36.4359C305.182 36.3873 304.92 36.3402 304.656 36.2948L305.779 34.1414L305.067 31.8097L305.885 31.8698L306.284 33.1747L306.924 31.9462L307.754 32.0072ZM298.088 35.5101L298.396 31.3197L300.506 31.4747L300.451 32.2262L299.097 32.1267L299.025 33.1008L300.05 33.1761L299.995 33.9209L298.971 33.8457L298.844 35.5654L298.088 35.5101ZM295.518 31.8639L295.573 31.1122L297.911 31.284L297.856 32.0356L297.065 31.9775L296.811 35.4367C296.558 35.4248 296.305 35.4141 296.053 35.4051L296.309 31.922L295.518 31.8639ZM292.662 35.3736L292.989 30.9225L295.089 31.0767L295.033 31.8283L293.689 31.7296L293.615 32.7476C293.924 32.7663 294.363 32.7941 294.636 32.8148L294.581 33.5598C294.24 33.5304 293.853 33.511 293.56 33.4924L293.477 34.6201C293.926 34.6178 294.377 34.6199 294.828 34.627L294.773 35.3719C294.067 35.3608 293.363 35.3615 292.662 35.3736ZM291.305 33.5427L291.506 30.8134L292.262 30.8689L291.929 35.3905C291.651 35.3986 291.373 35.4086 291.095 35.4203L290.405 32.841L290.212 35.4637C289.957 35.478 289.703 35.4938 289.448 35.5111L289.803 30.6883L290.521 30.7411L291.305 33.5427ZM303.346 36.0829L303.667 31.7069L304.423 31.7624L304.097 36.2008C303.847 36.1599 303.597 36.1207 303.346 36.0829Z" fill="#DB202C"/>
<path d="M327.99 30.3935C328.071 29.2835 327.404 28.6238 326.103 28.2651L324.835 27.9087C324.298 27.764 323.843 27.5094 323.88 26.9963C323.919 26.4727 324.391 26.0652 325.166 26.1221C325.962 26.1806 326.467 26.7547 326.462 27.5439L328.074 27.6624C328.085 26.0839 326.922 25.0088 325.236 24.8849C323.613 24.7657 322.359 25.6422 322.26 26.9826C322.169 28.2287 323.003 28.9112 324.128 29.2149L325.346 29.5465C325.976 29.7191 326.321 30.0288 326.287 30.5C326.242 31.1074 325.64 31.4211 324.834 31.3619C323.86 31.2903 323.365 30.717 323.384 29.8867L321.771 29.7682C321.769 31.3684 322.878 32.4711 324.773 32.6103C326.658 32.7488 327.884 31.8282 327.99 30.3935ZM331.289 33.0785C332.65 33.1785 333.677 32.5275 334.084 31.2834L332.639 31.1773C332.431 31.72 331.978 32.0026 331.339 31.9557C330.596 31.901 330.193 31.3661 330.166 30.4481L334.135 30.7397C334.53 28.9368 333.463 27.416 331.693 27.286C330.08 27.1675 328.829 28.2969 328.706 29.9619C328.578 31.7107 329.613 32.9554 331.289 33.0785ZM331.583 28.3518C332.274 28.4026 332.678 28.9271 332.663 29.7051L330.254 29.5281C330.441 28.7101 330.903 28.3018 331.583 28.3518ZM336.61 30.3109C336.676 29.4103 337.202 28.9857 337.778 29.028C338.438 29.0765 338.728 29.5611 338.668 30.3884L338.438 33.509L339.883 33.6151L340.149 30.0024C340.248 28.6515 339.527 27.8615 338.407 27.7792C337.674 27.7254 337.072 28.0286 336.623 28.5536L336.681 27.7578L335.341 27.6593L334.93 33.2512L336.386 33.3582L336.61 30.3109ZM343.33 26.9407C343.368 26.4276 342.997 26.0318 342.421 25.9895C341.855 25.948 341.43 26.2853 341.393 26.7984C341.356 27.2905 341.727 27.6863 342.293 27.7278C342.869 27.7701 343.294 27.4329 343.33 26.9407ZM342.593 33.8142L343.004 28.2223L341.549 28.1153L341.138 33.7073L342.593 33.8142ZM346.352 34.1956C347.975 34.3149 349.284 33.1266 349.403 31.5034C349.523 29.8698 348.402 28.5135 346.778 28.3943C345.155 28.275 343.847 29.4529 343.727 31.0865C343.608 32.7096 344.729 34.0764 346.352 34.1956ZM346.447 32.9076C345.724 32.8545 345.149 32.2332 345.225 31.1965C345.301 30.1598 345.96 29.6397 346.683 29.6928C347.406 29.7459 347.982 30.3567 347.906 31.3934C347.83 32.4301 347.169 32.9607 346.447 32.9076ZM351.781 31.7624C351.872 30.5267 352.721 30.2943 353.95 30.4793L354.061 28.9714C353.16 28.9052 352.259 29.2707 351.799 29.9528L351.878 28.8742L350.537 28.7757L350.127 34.3677L351.582 34.4746L351.781 31.7624ZM362.377 32.4565C362.497 30.8125 361.616 29.4843 360.108 29.3735C359.396 29.3212 358.754 29.6005 358.281 30.1658L358.341 29.349L357.001 29.2505L356.441 36.8635L357.897 36.9705L358.098 34.2269C358.477 34.8022 359.022 35.1264 359.682 35.1749C361.19 35.2857 362.255 34.1111 362.377 32.4565ZM360.879 32.3465C360.801 33.4147 360.165 33.9049 359.452 33.8526C358.74 33.8002 358.183 33.2119 358.261 32.1542C358.339 31.0966 358.977 30.5854 359.689 30.6377C360.401 30.69 360.956 31.2994 360.879 32.3465ZM364.759 32.7158C364.849 31.4801 365.698 31.2477 366.927 31.4327L367.038 29.9248C366.137 29.8586 365.237 30.2241 364.776 30.9062L364.855 29.8276L363.515 29.7291L363.104 35.321L364.559 35.428L364.759 32.7158ZM369.801 35.9184C371.424 36.0376 372.733 34.8493 372.852 33.2262C372.972 31.5926 371.851 30.2362 370.227 30.117C368.604 29.9977 367.297 31.1756 367.176 32.8092C367.057 34.4323 368.178 35.7991 369.801 35.9184ZM369.896 34.6303C369.173 34.5772 368.598 33.9559 368.674 32.9192C368.75 31.8825 369.409 31.3624 370.132 31.4155C370.855 31.4686 371.431 32.0794 371.355 33.1161C371.279 34.1528 370.618 34.6834 369.896 34.6303ZM373.415 33.2675C373.295 34.9011 374.175 36.2397 375.683 36.3505C376.406 36.4036 377.037 36.1236 377.52 35.5695L377.461 36.3758L378.791 36.4735L379.343 28.9547L377.898 28.8486L377.703 31.4979C377.324 30.9331 376.78 30.5983 376.109 30.5491C374.602 30.4383 373.536 31.6129 373.415 33.2675ZM374.912 33.3775C374.991 32.3094 375.627 31.8087 376.339 31.861C377.052 31.9133 377.62 32.492 377.542 33.5496C377.464 34.6073 376.826 35.1289 376.103 35.0758C375.391 35.0235 374.835 34.4247 374.912 33.3775ZM383.666 34.4628C383.611 35.2168 383.077 35.5987 382.554 35.5603C381.967 35.5172 381.605 35.1431 381.663 34.3578L381.904 31.0801L380.448 30.9732L380.187 34.5336C380.08 35.9891 380.847 36.7298 381.967 36.8121C382.679 36.8644 383.322 36.5643 383.662 36.0944L383.608 36.8274L384.938 36.9251L385.349 31.3332L383.904 31.227L383.666 34.4628ZM388.595 37.299C390.092 37.409 391.209 36.533 391.49 35.006L389.961 34.8937C389.821 35.652 389.359 36.0602 388.689 36.011C387.925 35.9548 387.498 35.3128 387.572 34.3076C387.645 33.3127 388.172 32.7303 388.926 32.7857C389.586 32.8342 390.002 33.328 390.021 34.0769L391.55 34.1892C391.483 32.6682 390.476 31.6046 389.021 31.4977C387.45 31.3823 386.208 32.5228 386.085 34.1983C385.96 35.9052 386.982 37.1805 388.595 37.299ZM395.829 36.3039C395.612 36.4037 395.356 36.4481 395.083 36.4281C394.56 36.3896 394.286 36.1063 394.334 35.4571L394.495 33.258L396.097 33.3757L396.189 32.1295L394.587 32.0118L394.708 30.3573L393.263 30.2511L393.142 31.9057L392.011 31.8226L391.919 33.0687L393.05 33.1518L392.864 35.686C392.771 36.9426 393.446 37.6554 394.597 37.74C395.027 37.7716 395.367 37.7229 395.736 37.571L395.829 36.3039ZM398.694 35.1247C398.574 36.7583 399.455 38.0969 400.963 38.2077C401.685 38.2608 402.317 37.9807 402.799 37.4266L402.74 38.233L404.07 38.3307L404.623 30.8119L403.177 30.7058L402.983 33.3551C402.603 32.7903 402.059 32.4555 401.389 32.4063C399.881 32.2955 398.816 33.4701 398.694 35.1247ZM400.192 35.2347C400.27 34.1665 400.907 33.6659 401.619 33.7182C402.331 33.7705 402.899 34.3492 402.822 35.4068C402.744 36.4645 402.105 36.9861 401.383 36.933C400.671 36.8807 400.115 36.2818 400.192 35.2347ZM407.792 38.6988C409.153 38.7989 410.18 38.1479 410.587 36.9038L409.142 36.7977C408.934 37.3404 408.482 37.623 407.843 37.5761C407.099 37.5214 406.696 36.9865 406.669 36.0685L410.638 36.3601C411.034 34.5572 409.966 33.0364 408.196 32.9064C406.584 32.7879 405.332 33.9173 405.21 35.5823C405.081 37.3311 406.116 38.5758 407.792 38.6988ZM408.087 33.9722C408.778 34.023 409.181 34.5475 409.166 35.3255L406.758 35.1485C406.944 34.3305 407.406 33.9222 408.087 33.9722ZM416.288 37.4279C416.347 36.6216 415.829 36.0782 414.755 35.7887L413.691 35.5105C413.196 35.3794 412.975 35.2263 413 34.8912C413.026 34.5352 413.397 34.3623 413.931 34.4016C414.549 34.447 414.932 34.8121 414.945 35.3605L416.338 35.4628C416.321 34.2508 415.413 33.4366 414.009 33.3335C412.617 33.2311 411.673 33.8883 411.597 34.925C411.533 35.7942 412.1 36.3938 413.092 36.6457L414.084 36.908C414.61 37.052 414.83 37.2155 414.803 37.5715C414.774 37.9695 414.332 38.1159 413.766 38.0744C413.044 38.0213 412.578 37.6186 412.61 37.0419L411.218 36.9396C411.241 38.1942 412.075 39.024 413.667 39.141C415.259 39.2579 416.202 38.6008 416.288 37.4279ZM419.342 32.525C419.38 32.0119 419.009 31.6162 418.433 31.5739C417.868 31.5323 417.443 31.8696 417.405 32.3827C417.369 32.8749 417.74 33.2706 418.305 33.3122C418.881 33.3545 419.306 33.0172 419.342 32.525ZM418.606 39.3985L419.017 33.8066L417.561 33.6997L417.15 39.2916L418.606 39.3985ZM422.122 41.7941C423.777 41.9157 424.848 41.0889 424.957 39.6019L425.349 34.2718L424.019 34.1741L423.963 34.9385C423.597 34.3326 423.053 33.9978 422.299 33.9425C420.916 33.8409 419.871 34.8906 419.751 36.5137C419.635 38.095 420.576 39.3327 421.948 39.4335C422.629 39.4835 423.228 39.2117 423.571 38.6999L423.511 39.5167C423.451 40.3231 423.001 40.7216 422.195 40.6624C421.503 40.6116 421.12 40.2465 421.104 39.6031L419.701 39.5C419.669 40.7927 420.614 41.6833 422.122 41.7941ZM421.207 36.6207C421.274 35.7096 421.798 35.1691 422.541 35.2237C423.306 35.2798 423.765 35.9032 423.699 36.8142C423.634 37.6939 423.087 38.2538 422.323 38.1977C421.569 38.1423 421.14 37.5317 421.207 36.6207ZM427.931 37.0199C427.997 36.1193 428.523 35.6947 429.099 35.737C429.759 35.7855 430.05 36.2701 429.989 37.0974L429.76 40.218L431.205 40.3241L431.47 36.7114C431.569 35.3605 430.848 34.5706 429.728 34.4882C428.995 34.4344 428.394 34.7376 427.944 35.2626L428.003 34.4668L426.662 34.3683L426.252 39.9603L427.707 40.0672L427.931 37.0199ZM434.882 40.689C436.243 40.789 437.27 40.138 437.677 38.894L436.232 38.7878C436.024 39.3305 435.571 39.6132 434.932 39.5662C434.189 39.5116 433.786 38.9766 433.759 38.0587L437.728 38.3502C438.123 36.5474 437.056 35.0266 435.286 34.8966C433.673 34.7781 432.422 35.9074 432.299 37.5724C432.171 39.3212 433.206 40.5659 434.882 40.689ZM435.176 35.9624C435.867 36.0132 436.271 36.5377 436.256 37.3156L433.847 37.1387C434.034 36.3207 434.495 35.9124 435.176 35.9624ZM440.178 38.2565C440.269 37.0209 441.118 36.7884 442.346 36.9735L442.457 35.4655C441.557 35.3994 440.656 35.7649 440.195 36.4469L440.274 35.3683L438.934 35.2699L438.523 40.8618L439.979 40.9687L440.178 38.2565Z" fill="#1A1A1A"/>
<path d="M325.256 46.5782L326.253 46.6514L326.726 40.2068L325.811 40.1395L325.45 45.0403L322.498 39.8962L321.421 39.817L320.948 46.2617L321.863 46.3289L322.233 41.2935L325.256 46.5782ZM329.523 46.9819C330.645 47.0643 331.509 46.4871 331.82 45.445L330.922 45.3791C330.724 45.9872 330.23 46.3209 329.557 46.2715C328.758 46.2128 328.315 45.6117 328.315 44.6371L331.86 44.8975C332.135 43.3656 331.277 42.1474 329.859 42.0432C328.548 41.9469 327.512 42.9086 327.409 44.3178C327.298 45.8168 328.15 46.881 329.523 46.9819ZM329.791 42.7241C330.527 42.7781 330.964 43.3427 330.944 44.2256L328.368 44.0363C328.532 43.155 329.064 42.6707 329.791 42.7241ZM335.396 46.4388C335.201 46.5147 335.01 46.5367 334.795 46.5209C334.31 46.4853 334.013 46.2289 334.061 45.5736L334.233 43.2309L335.669 43.3364L335.726 42.5645L334.29 42.459L334.394 41.0498L333.487 40.9832L333.384 42.3924L332.333 42.3153L332.277 43.0872L333.327 43.1643L333.14 45.7135C333.062 46.7636 333.638 47.2842 334.517 47.3488C334.805 47.3699 335.05 47.3428 335.338 47.2376L335.396 46.4388ZM337.667 47.49L337.96 43.5047L339.288 43.6023L339.345 42.8304L338.016 42.7328L338.041 42.3917C338.075 41.9339 338.341 41.7549 338.772 41.7866C338.933 41.7984 339.094 41.8283 339.233 41.9017L339.287 41.1656C339.112 41.0806 338.9 41.0199 338.631 41.0002C337.733 40.9342 337.203 41.4006 337.136 42.3161L337.11 42.6662L336.06 42.589L336.003 43.3609L337.053 43.4381L336.76 47.4234L337.667 47.49ZM340.593 47.7049L341.067 41.2603L340.151 41.193L339.678 47.6377L340.593 47.7049ZM343.386 42.0173C343.412 41.6672 343.161 41.3961 342.775 41.3678C342.389 41.3394 342.093 41.5703 342.067 41.9204C342.042 42.2615 342.301 42.5422 342.687 42.5705C343.073 42.5989 343.361 42.3584 343.386 42.0173ZM342.758 47.864L343.108 43.1068L342.201 43.0402L341.852 47.7974L342.758 47.864ZM344.511 47.9927L345.906 46.1912L347.042 48.1787L348.083 48.2552L346.59 45.727L348.325 43.4901L347.346 43.4182L346.039 45.127L344.995 43.2454L343.944 43.1683L345.353 45.6091L343.487 47.9176L344.511 47.9927Z" fill="#667085"/>
<rect x="281.676" y="59.4197" width="108" height="18" rx="9" transform="rotate(4.20175 281.676 59.4197)" fill="#F2F4F7"/>
<g clip-path="url(#clip1_1607_12053)">
<path d="M289.553 75.0387C292.858 75.2815 295.734 72.7993 295.976 69.4944C296.219 66.1896 293.737 63.3138 290.432 63.071C287.127 62.8282 284.251 65.3104 284.009 68.6152C283.766 71.92 286.248 74.7959 289.553 75.0387Z" fill="#F0F0F0"/>
<path d="M289.733 69.0358L295.977 69.4945C296.017 68.9544 295.983 68.4259 295.886 67.9184L289.848 67.4748L289.733 69.0358Z" fill="#D80027"/>
<path d="M289.962 65.9138L295.328 66.308C295.006 65.6834 294.576 65.1206 294.062 64.6455L290.077 64.3528L289.962 65.9138Z" fill="#D80027"/>
<path d="M289.553 75.0388C290.961 75.1423 292.292 74.7507 293.374 74.0117L285.924 73.4644C286.886 74.3535 288.145 74.9354 289.553 75.0388Z" fill="#D80027"/>
<path d="M284.658 71.8019L294.869 72.552C295.199 72.0938 295.465 71.586 295.656 71.0404L284.101 70.1915C284.21 70.7591 284.399 71.3004 284.658 71.8019Z" fill="#D80027"/>
<path d="M287.151 63.7695L287.697 63.8095L287.162 64.1407L287.312 64.7512L286.832 64.3455L286.298 64.6767L286.503 64.1739C286.029 64.5131 285.606 64.9202 285.248 65.3821L285.422 65.395L285.082 65.6058C285.026 65.686 284.971 65.7677 284.919 65.8508L285.038 66.3367L284.766 66.1066C284.683 66.2528 284.606 66.4029 284.536 66.5567L284.667 67.092L285.294 67.1381L284.76 67.4693L284.91 68.0798L284.43 67.6741L284.11 67.8725C284.061 68.1147 284.027 68.3625 284.009 68.6152L289.993 69.0548C290.235 65.7501 290.264 65.3604 290.432 63.071C289.25 62.9841 288.123 63.2461 287.151 63.7695ZM287.056 68.2375L286.576 67.8317L286.042 68.163L286.279 67.581L285.799 67.1752L286.426 67.2212L286.664 66.6392L286.814 67.2497L287.441 67.2958L286.906 67.627L287.056 68.2375ZM287.034 65.8839L287.184 66.4944L286.704 66.0886L286.17 66.4198L286.407 65.8378L285.927 65.4321L286.554 65.4781L286.792 64.8961L286.942 65.5066L287.569 65.5526L287.034 65.8839ZM289.203 68.3952L288.723 67.9894L288.188 68.3207L288.426 67.7386L287.946 67.3329L288.573 67.3789L288.81 66.7969L288.96 67.4074L289.587 67.4535L289.053 67.7847L289.203 68.3952ZM289.181 66.0416L289.331 66.6521L288.851 66.2463L288.316 66.5775L288.554 65.9955L288.074 65.5897L288.701 65.6358L288.938 65.0538L289.088 65.6643L289.715 65.7103L289.181 66.0416ZM289.309 64.2984L289.459 64.9089L288.979 64.5032L288.444 64.8344L288.682 64.2524L288.202 63.8466L288.829 63.8927L289.066 63.3106L289.216 63.9211L289.843 63.9672L289.309 64.2984Z" fill="#0052B4"/>
</g>
<path d="M308.164 66.9187L306.8 66.8185L306.505 70.8396C306.446 71.6385 306.02 72.1487 305.123 72.0827C304.216 72.0161 303.87 71.4492 303.929 70.6504L304.224 66.6292L302.86 66.529L302.566 70.5232C302.454 72.0491 303.328 73.1781 305.033 73.3034C306.712 73.4267 307.759 72.4388 307.871 70.9129L308.164 66.9187ZM310.328 70.931C310.384 70.159 310.835 69.7951 311.329 69.8314C311.894 69.8729 312.144 70.2883 312.092 70.9974L311.895 73.6722L313.134 73.7632L313.361 70.6665C313.446 69.5086 312.828 68.8315 311.868 68.761C311.239 68.7148 310.724 68.9748 310.339 69.4248L310.389 68.7426L309.24 68.6582L308.888 73.4513L310.136 73.5429L310.328 70.931ZM316.088 68.0422C316.12 67.6024 315.802 67.2632 315.308 67.2269C314.824 67.1913 314.46 67.4804 314.427 67.9202C314.396 68.3421 314.714 68.6813 315.199 68.7169C315.693 68.7532 316.057 68.4641 316.088 68.0422ZM315.456 73.9338L315.809 69.1407L314.561 69.0491L314.209 73.8422L315.456 73.9338ZM319.636 73.0226C319.449 73.1081 319.229 73.1461 318.996 73.129C318.547 73.096 318.312 72.8532 318.353 72.2967L318.492 70.4118L319.865 70.5126L319.944 69.4445L318.57 69.3436L318.675 67.9255L317.436 67.8345L317.332 69.2526L316.362 69.1814L316.284 70.2495L317.253 70.3208L317.094 72.4929C317.014 73.57 317.592 74.181 318.58 74.2535C318.948 74.2805 319.239 74.2388 319.556 74.1086L319.636 73.0226ZM322.325 74.5196C323.491 74.6053 324.372 74.0473 324.721 72.981L323.482 72.89C323.304 73.3552 322.916 73.5974 322.368 73.5572C321.731 73.5104 321.386 73.0519 321.362 72.265L324.764 72.515C325.103 70.9697 324.188 69.6661 322.671 69.5547C321.289 69.4531 320.216 70.4211 320.111 71.8483C320.001 73.3472 320.888 74.4141 322.325 74.5196ZM322.577 70.4682C323.17 70.5117 323.515 70.9613 323.503 71.6282L321.438 71.4765C321.598 70.7753 321.994 70.4254 322.577 70.4682ZM325.22 72.2417C325.117 73.6419 325.872 74.7893 327.165 74.8842C327.784 74.9297 328.325 74.6897 328.739 74.2148L328.688 74.9059L329.828 74.9897L330.302 68.545L329.063 68.454L328.896 70.7249C328.571 70.2408 328.105 69.9538 327.53 69.9116C326.238 69.8167 325.324 70.8235 325.22 72.2417ZM326.504 72.336C326.571 71.4204 327.117 70.9913 327.727 71.0361C328.338 71.0809 328.825 71.577 328.758 72.4835C328.691 73.3901 328.144 73.8372 327.525 73.7917C326.915 73.7468 326.438 73.2335 326.504 72.336ZM336.979 73.9718C337.029 73.2807 336.585 72.8149 335.665 72.5668L334.753 72.3283C334.328 72.2159 334.139 72.0847 334.16 71.7975C334.183 71.4923 334.5 71.3442 334.958 71.3778C335.488 71.4167 335.817 71.7297 335.827 72.1997L337.021 72.2874C337.007 71.2486 336.228 70.5506 335.026 70.4623C333.832 70.3746 333.023 70.9379 332.958 71.8265C332.903 72.5715 333.389 73.0854 334.239 73.3013L335.089 73.5262C335.54 73.6496 335.729 73.7897 335.706 74.0949C335.681 74.436 335.302 74.5616 334.817 74.5259C334.198 74.4804 333.799 74.1353 333.826 73.641L332.633 73.5533C332.653 74.6286 333.368 75.3399 334.732 75.4402C336.096 75.5404 336.905 74.9771 336.979 73.9718ZM340.69 74.5694C340.503 74.6549 340.284 74.6929 340.051 74.6758C339.602 74.6428 339.367 74.4 339.408 73.8435L339.546 71.9585L340.92 72.0594L340.998 70.9913L339.625 70.8904L339.729 69.4722L338.49 69.3812L338.386 70.7994L337.417 70.7282L337.338 71.7963L338.308 71.8676L338.148 74.0397C338.069 75.1168 338.647 75.7278 339.634 75.8003C340.002 75.8273 340.294 75.7856 340.61 75.6554L340.69 74.5694ZM344.262 76.0501L345.276 76.1246L345.498 73.1087C345.584 71.9329 344.899 71.1877 343.643 71.0953C342.485 71.0103 341.633 71.6697 341.48 72.7684L342.602 72.8508C342.687 72.3156 343.033 72.0252 343.571 72.0647C344.092 72.103 344.374 72.4396 344.334 72.9781L344.313 73.2653C344.02 73.2077 343.788 73.1726 343.518 73.1528C342.118 73.0499 341.327 73.4972 341.259 74.4307C341.193 75.3282 341.814 75.9605 342.811 76.0337C343.466 76.0818 343.959 75.8834 344.306 75.4577L344.262 76.0501ZM342.437 74.4811C342.469 74.0503 342.835 73.8516 343.545 73.9037C343.76 73.9195 343.965 73.9527 344.258 74.0193L344.233 74.3604C344.192 74.9169 343.78 75.2386 343.143 75.1918C342.676 75.1575 342.408 74.885 342.437 74.4811ZM349.35 75.2056C349.164 75.2912 348.944 75.3292 348.711 75.312C348.262 75.2791 348.027 75.0362 348.068 74.4797L348.207 72.5948L349.58 72.6957L349.658 71.6276L348.285 71.5267L348.389 70.1085L347.151 70.0175L347.047 71.4357L346.077 71.3644L345.999 72.4326L346.968 72.5038L346.808 74.6759C346.729 75.753 347.307 76.364 348.294 76.4365C348.662 76.4636 348.954 76.4218 349.271 76.2917L349.35 75.2056ZM352.039 76.7026C353.206 76.7884 354.087 76.2304 354.436 75.1641L353.197 75.0731C353.018 75.5382 352.631 75.7805 352.083 75.7403C351.446 75.6934 351.1 75.2349 351.077 74.4481L354.479 74.698C354.818 73.1527 353.903 71.8491 352.386 71.7377C351.004 71.6362 349.931 72.6042 349.826 74.0313C349.716 75.5303 350.603 76.5971 352.039 76.7026ZM352.292 72.6513C352.884 72.6948 353.23 73.1443 353.217 73.8112L351.153 73.6595C351.313 72.9583 351.709 72.6084 352.292 72.6513ZM359.322 75.6133C359.373 74.9221 358.928 74.4564 358.008 74.2083L357.096 73.9698C356.671 73.8574 356.482 73.7262 356.503 73.4389C356.526 73.1338 356.844 72.9856 357.301 73.0193C357.831 73.0582 358.16 73.3711 358.17 73.8412L359.364 73.9289C359.35 72.8901 358.571 72.1921 357.369 72.1037C356.175 72.016 355.366 72.5793 355.301 73.4679C355.246 74.2129 355.732 74.7269 356.583 74.9428L357.432 75.1676C357.883 75.291 358.072 75.4312 358.049 75.7364C358.024 76.0775 357.645 76.203 357.16 76.1674C356.541 76.1219 356.142 75.7768 356.17 75.2824L354.976 75.1947C354.996 76.2701 355.711 76.9814 357.075 77.0816C358.439 77.1819 359.248 76.6186 359.322 75.6133ZM364.048 77.5939C365.44 77.6961 366.561 76.6776 366.663 75.2863C366.766 73.8861 365.805 72.7235 364.414 72.6213C363.022 72.5191 361.901 73.5287 361.798 74.9289C361.696 76.3202 362.657 77.4917 364.048 77.5939ZM364.129 76.4899C363.51 76.4444 363.017 75.9118 363.082 75.0232C363.147 74.1346 363.712 73.6888 364.332 73.7343C364.951 73.7798 365.445 74.3034 365.38 75.192C365.315 76.0806 364.749 76.5354 364.129 76.4899ZM368.723 75.221C368.78 74.4491 369.231 74.0852 369.724 74.1215C370.29 74.163 370.539 74.5784 370.487 75.2875L370.29 77.9623L371.529 78.0533L371.757 74.9566C371.842 73.7987 371.224 73.1216 370.263 73.0511C369.635 73.0049 369.119 73.2648 368.734 73.7148L368.785 73.0327L367.636 72.9483L367.283 77.7413L368.531 77.833L368.723 75.221ZM373.861 78.2246L374.334 71.7799L373.078 71.6876L372.604 78.1322L373.861 78.2246ZM379.649 73.8308L378.401 73.7392L377.065 76.9439L376.104 73.5704L374.757 73.4715L376.294 78.3492L375.481 80.0852L376.836 80.1848L379.649 73.8308Z" fill="#667085"/>
<rect x="395.369" y="67.7723" width="62.5" height="18" rx="9" transform="rotate(4.20175 395.369 67.7723)" fill="#D1FADF"/>
<ellipse cx="402.938" cy="77.3526" rx="2.25" ry="2.25" transform="rotate(4.20175 402.938 77.3526)" fill="#039855"/>
<path d="M412.975 81.098L413.155 78.6387L415.516 78.8121L415.602 77.6363L413.242 77.4628L413.361 75.8382L416.161 76.044L416.249 74.8591L412.084 74.5532L411.61 80.9978L412.975 81.098ZM419.599 79.5543C419.552 80.2005 419.095 80.5279 418.646 80.495C418.143 80.458 417.833 80.1374 417.882 79.4642L418.089 76.6548L416.841 76.5632L416.617 79.6149C416.525 80.8626 417.183 81.4974 418.143 81.568C418.753 81.6128 419.305 81.3555 419.596 80.9528L419.55 81.5811L420.69 81.6648L421.042 76.8718L419.803 76.7808L419.599 79.5543ZM423.067 81.8395L423.541 75.3949L422.284 75.3026L421.811 81.7472L423.067 81.8395ZM425.443 82.014L425.916 75.5694L424.66 75.4771L424.186 81.9217L425.443 82.014ZM431.506 81.2412C431.32 81.3268 431.1 81.3648 430.867 81.3477C430.418 81.3147 430.183 81.0718 430.224 80.5153L430.363 78.6304L431.736 78.7313L431.814 77.6632L430.441 77.5623L430.545 76.1441L429.307 76.0531L429.202 77.4713L428.233 77.4001L428.155 78.4682L429.124 78.5394L428.964 80.7116C428.885 81.7887 429.463 82.3996 430.45 82.4722C430.818 82.4992 431.11 82.4575 431.427 82.3273L431.506 81.2412ZM434.103 76.7123C434.135 76.2725 433.817 75.9333 433.324 75.897C432.839 75.8614 432.475 76.1505 432.443 76.5903C432.412 77.0122 432.73 77.3514 433.214 77.387C433.708 77.4233 434.072 77.1342 434.103 76.7123ZM433.472 82.6039L433.824 77.8108L432.576 77.7191L432.224 82.5122L433.472 82.6039ZM435.83 82.7771L436.026 80.1023C436.079 79.3843 436.502 79.0273 437.005 79.0642C437.552 79.1045 437.81 79.5295 437.76 80.2027L437.562 82.9044L438.801 82.9954L438.997 80.3206C439.05 79.6025 439.482 79.2462 439.976 79.2825C440.523 79.3227 440.781 79.7477 440.731 80.4209L440.533 83.1226L441.772 83.2136L441.999 80.117C442.083 78.9681 441.475 78.2827 440.506 78.2114C439.788 78.1587 439.279 78.4462 438.863 78.9481C438.661 78.3828 438.181 78.0407 437.526 77.9925C436.888 77.9457 436.419 78.2 436.033 78.6589L436.083 77.9768L434.934 77.8924L434.582 82.6855L435.83 82.7771ZM444.915 83.5258C446.082 83.6116 446.963 83.0536 447.312 81.9873L446.073 81.8963C445.894 82.3614 445.507 82.6037 444.959 82.5634C444.322 82.5166 443.976 82.0581 443.953 81.2713L447.355 81.5212C447.694 79.9759 446.779 78.6723 445.262 78.5609C443.88 78.4593 442.807 79.4273 442.702 80.8545C442.592 82.3535 443.479 83.4203 444.915 83.5258ZM445.168 79.4744C445.76 79.518 446.106 79.9675 446.093 80.6344L444.029 80.4827C444.189 79.7815 444.585 79.4316 445.168 79.4744Z" fill="#039855"/>
<rect x="463.686" y="72.7913" width="52" height="18" rx="9" transform="rotate(4.20175 463.686 72.7913)" fill="#FEE4E2"/>
<path d="M473.811 85.5675L473.978 83.2876L474.831 83.3503L476.117 85.7369L477.742 85.8563L476.264 83.248C477.202 83.0101 477.791 82.3585 477.855 81.4879C477.954 80.1505 477.066 79.3273 475.442 79.2079L472.92 79.0226L472.446 85.4672L473.811 85.5675ZM474.201 80.2538L475.296 80.3342C476.122 80.3949 476.538 80.7503 476.491 81.3876C476.445 82.0159 475.981 82.3067 475.155 82.2461L474.06 82.1656L474.201 80.2538ZM480.358 86.1297C481.525 86.2154 482.405 85.6574 482.754 84.5911L481.515 84.5001C481.337 84.9653 480.949 85.2075 480.402 85.1673C479.764 85.1205 479.419 84.662 479.396 83.8751L482.797 84.125C483.136 82.5797 482.222 81.2762 480.705 81.1648C479.322 81.0632 478.25 82.0312 478.145 83.4584C478.035 84.9573 478.922 86.0242 480.358 86.1297ZM480.61 82.0783C481.203 82.1218 481.549 82.5714 481.536 83.2382L479.471 83.0866C479.631 82.3854 480.027 82.0354 480.61 82.0783ZM484.727 86.3695L484.924 83.6947C484.976 82.9766 485.4 82.6197 485.902 82.6566C486.45 82.6968 486.707 83.1218 486.658 83.795L486.459 86.4967L487.698 86.5877L487.895 83.9129C487.947 83.1949 488.38 82.8386 488.873 82.8748C489.421 82.9151 489.678 83.3401 489.629 84.0133L489.43 86.715L490.669 86.806L490.896 83.7093C490.981 82.5604 490.372 81.875 489.403 81.8038C488.685 81.751 488.177 82.0386 487.761 82.5404C487.559 81.9751 487.078 81.633 486.423 81.5849C485.786 81.538 485.316 81.7923 484.93 82.2513L484.98 81.5691L483.831 81.4847L483.479 86.2778L484.727 86.3695ZM493.848 87.1298C495.239 87.232 496.361 86.2134 496.463 84.8222C496.566 83.422 495.605 82.2594 494.213 82.1572C492.822 82.055 491.701 83.0646 491.598 84.4648C491.496 85.856 492.457 87.0276 493.848 87.1298ZM493.929 86.0258C493.31 85.9803 492.817 85.4477 492.882 84.5591C492.947 83.6705 493.512 83.2247 494.132 83.2702C494.751 83.3157 495.245 83.8393 495.18 84.7279C495.114 85.6165 494.549 86.0713 493.929 86.0258ZM500.065 86.278C499.878 86.3635 499.659 86.4016 499.425 86.3844C498.976 86.3514 498.742 86.1086 498.782 85.5521L498.921 83.6672L500.294 83.768L500.373 82.6999L498.999 82.599L499.104 81.1809L497.865 81.0899L497.761 82.508L496.791 82.4368L496.713 83.5049L497.682 83.5762L497.523 85.7483C497.444 86.8254 498.021 87.4364 499.009 87.5089C499.377 87.536 499.668 87.4942 499.985 87.3641L500.065 86.278ZM502.754 87.775C503.92 87.8607 504.801 87.3027 505.15 86.2364L503.911 86.1454C503.733 86.6106 503.345 86.8529 502.797 86.8126C502.16 86.7658 501.815 86.3073 501.791 85.5204L505.193 85.7704C505.532 84.2251 504.617 82.9215 503.1 82.8101C501.718 82.7085 500.645 83.6765 500.54 85.1037C500.43 86.6026 501.317 87.6695 502.754 87.775ZM503.006 83.7236C503.599 83.7672 503.945 84.2167 503.932 84.8836L501.867 84.7319C502.027 84.0307 502.423 83.6808 503.006 83.7236Z" fill="#F04438"/>
<rect x="268.302" y="0.907572" width="269.25" height="90.75" rx="11.625" transform="rotate(4.20175 268.302 0.907572)" stroke="#E4E6E8" stroke-width="0.75"/>
<path d="M5.13952 116.16C12.2139 103.145 29.5981 87.5795 45.8725 92.1569C63.8783 97.2213 80.4709 116.232 77.1034 135.877C75.1979 146.994 58.1743 156.251 64.7909 137.566C72.8069 114.928 113.752 93.3483 131.661 119.012C134.059 122.449 128.946 119.679 133.143 112.473C145.734 90.858 174.672 80.1644 195.361 68.6955" stroke="url(#paint0_linear_1607_12053)" stroke-linecap="round"/>
<defs>
<linearGradient id="paint0_linear_1607_12053" x1="207" y1="32.5" x2="13.5" y2="188.5" gradientUnits="userSpaceOnUse">
<stop stop-color="#0066CC"/>
<stop offset="0.645833" stop-color="#7F56D9"/>
<stop offset="1" stop-color="#E3D7FF"/>
</linearGradient>
<clipPath id="clip0_1607_12053">
<rect width="12" height="12" fill="white" transform="translate(300.833 74.9939) rotate(-2)"/>
</clipPath>
<clipPath id="clip1_1607_12053">
<rect width="12" height="12" fill="white" transform="translate(284.448 62.6315) rotate(4.20175)"/>
</clipPath>
</defs>
</svg>
